# xmcd
#
# Track frame offsets:
#	182
#	15952
#	28427
#	41430
#	55965
#	74035
#	88002
#	106250
#	119597
#	139100
#	151952
#	168550
#	178515
#
# Disc length: 2567 seconds
#
# Revision: 1
# Processed by: cddbd v1.5.2PL0 Copyright (c) Steve Scherf et al.
# Submitted via: audiograbber 1.83.01
#
DISCID=b20a050d
DTITLE=Joe Sun - Hank Borgart Still Lives
DYEAR=1989
DGENRE=Country
TTITLE0=Hank And Bogart Still Live
TTITLE1=A Part Of Me Missing You
TTITLE2=Doreen
TTITLE3=Slow Motion
TTITLE4=Sound Of The South Being Born
TTITLE5=Chasing Rainbows
TTITLE6=Maxine
TTITLE7=Gas And Food Exit Off I-24
TTITLE8=Jimmy 55
TTITLE9=Watermelon Time In Georgia
TTITLE10=Burning Memories
TTITLE11=Good Loving Bad
TTITLE12=Ballad Of Thunder Road
EXTD=
EXTT0=
EXTT1=
EXTT2=
EXTT3=
EXTT4=
EXTT5=
EXTT6=
EXTT7=
EXTT8=
EXTT9=
EXTT10=
EXTT11=
EXTT12=
PLAYORDER=
